<svg width="113" height="110" viewBox="0 0 113 110" fill="none" xmlns="http://www.w3.org/2000/svg">
<rect x="6.5" y="3.5" width="103" height="103" rx="21.5" fill="white" stroke="#B4433A" stroke-width="7"/>
<rect x="0.679016" y="40.6666" width="109.321" height="4" fill="#B4433A"/>
<path fill-rule="evenodd" clip-rule="evenodd" d="M39.0676 66.2587L47.0068 63.5138C45.3677 65.6757 43.9595 67.9974 42.8048 70.4427L39.0676 66.2587ZM33.5511 66.7094L40.9066 74.944L39.8412 77.5533C39.5103 78.3636 39.7042 79.2891 40.3342 79.9063L41.0327 80.5906C37.2395 84.7805 35.1443 89.1627 33.1144 95.1282C32.8476 95.9121 33.0559 96.7766 33.6524 97.3609C34.249 97.9451 35.1313 98.1494 35.9317 97.888C42.0213 95.8995 46.4948 93.847 50.7721 90.1312L51.4706 90.8154C52.1006 91.4326 53.0454 91.6225 53.8727 91.2985L56.5363 90.2547L64.9425 97.4601C65.4984 97.9366 66.2592 98.1121 66.9737 97.9286C67.6885 97.7451 68.2635 97.2267 68.5094 96.5442L75.1603 78.0847C79.5449 73.0024 82 66.5268 82 59.7762V52.1818C82 50.9768 81.0029 50 79.7727 50H72.0201C65.1289 50 58.5183 52.4049 53.3301 56.7001L34.486 63.2153C33.7895 63.4561 33.2601 64.0196 33.0728 64.7195C32.8856 65.4195 33.0647 66.1649 33.5511 66.7094ZM38.9809 92.1411C40.3785 88.8345 41.947 86.2026 44.1889 83.6824L47.6159 87.0393C45.0432 89.2356 42.3564 90.772 38.9809 92.1411ZM53.5818 86.7125L52.3931 85.5481L45.7113 79.0026L44.5226 77.8382L46.1037 73.9659C47.5545 70.4131 49.5918 67.1178 52.1341 64.2124L53.4183 62.7446C58.0729 57.4251 64.8678 54.3636 72.0201 54.3636H77.5455V59.7762C77.5455 66.7824 74.4202 73.4388 68.9899 77.9983L67.4916 79.2564C64.5255 81.7467 61.1617 83.7424 57.5348 85.1636L53.5818 86.7125ZM65.4026 92.0562L61.1314 88.3953C63.6277 87.2643 65.9977 85.8847 68.2047 84.2789L65.4026 92.0562ZM64.1818 65.2727C64.1818 64.0677 65.179 63.0909 66.4091 63.0909C67.6392 63.0909 68.6364 64.0677 68.6364 65.2727C68.6364 66.4777 67.6392 67.4545 66.4091 67.4545C65.179 67.4545 64.1818 66.4777 64.1818 65.2727ZM66.4091 58.7273C62.7187 58.7273 59.7273 61.6578 59.7273 65.2727C59.7273 68.8876 62.7187 71.8181 66.4091 71.8181C70.0995 71.8181 73.0909 68.8876 73.0909 65.2727C73.0909 61.6578 70.0995 58.7273 66.4091 58.7273Z" fill="#B4433A"/>
<circle cx="18.6729" cy="30.3333" r="5.04608" fill="#B4433A"/>
<circle cx="32.2531" cy="30.3333" r="5.04608" fill="#B4433A"/>
</svg>
