<svg width="110" height="110" viewBox="0 0 110 110" fill="none" xmlns="http://www.w3.org/2000/svg">
<path d="M55 0C85.3754 0 110 24.6243 110 55C110 85.3754 85.3754 110 55 110C24.6243 110 0 85.3754 0 55C0 24.6243 24.6243 0 55 0ZM64.2543 76.7228C58.228 77.088 51.772 77.088 45.7457 76.7228C46.4893 81.0486 47.4425 84.9392 48.5507 88.2629C49.9367 92.4214 51.4662 95.3904 52.8973 97.2065C53.3786 97.817 54.1189 99 55.0104 99C55.8074 98.9285 56.6742 97.7504 57.1027 97.2065C58.5338 95.3904 60.0633 92.4214 61.4493 88.2629C62.5575 84.9392 63.5107 81.0486 64.2543 76.7228ZM96.3215 70.1514C94.8657 70.7778 93.3323 71.3548 91.7416 71.885C87.0529 73.4481 81.5782 74.6988 75.5728 75.5728C74.6988 81.5782 73.4481 87.0529 71.885 91.7416C71.3548 93.3323 70.7778 94.8657 70.1514 96.3215C82.2635 91.8792 91.8792 82.2635 96.3215 70.1514ZM13.6781 70.1508C18.1205 82.2635 27.7363 91.8792 39.8484 96.3215C39.2222 94.8657 38.6451 93.3323 38.115 91.7416C36.5521 87.0529 35.301 81.5782 34.4274 75.5728C28.4221 74.6988 22.9478 73.4475 18.2595 71.885C16.6685 71.3548 15.1344 70.7773 13.6781 70.1508ZM44.3949 44.3949C43.8601 51.4481 43.8601 58.5519 44.3949 65.6051C51.4481 66.1397 58.5519 66.1397 65.6051 65.6051C66.1397 58.5519 66.1397 51.4481 65.6051 44.3949C58.5519 43.8601 51.4481 43.8601 44.3949 44.3949ZM76.7228 45.7457C77.088 51.772 77.088 58.228 76.7228 64.2543C81.0486 63.5107 84.9392 62.5575 88.2629 61.4493C92.4214 60.0633 95.3904 58.5338 97.2065 57.1027C97.812 56.6253 99 55.8717 99 54.9896C98.9279 54.1926 97.7504 53.3258 97.2065 52.8973C95.3904 51.4662 92.4214 49.9367 88.2629 48.5507C84.9392 47.4425 81.0486 46.4893 76.7228 45.7457ZM33.2774 45.7463C28.9518 46.4898 25.0615 47.4425 21.738 48.5507C17.5794 49.9367 14.6108 51.4662 12.7948 52.8973C11.4775 53.9352 11.0751 54.7261 11.0173 54.9159C10.7669 55.7376 12.279 56.6962 12.7948 57.1027C14.6108 58.5338 17.5794 60.0633 21.738 61.4493C25.0615 62.5575 28.9518 63.5102 33.2774 64.2537C32.9118 58.228 32.9118 51.772 33.2774 45.7463ZM39.8489 13.6781C27.7366 18.1206 18.1206 27.7366 13.6781 39.8489C15.1344 39.2225 16.6685 38.6453 18.2595 38.115C22.9478 36.5522 28.4222 35.3011 34.4275 34.4275C35.3011 28.4222 36.5522 22.9479 38.115 18.2595C38.6453 16.6685 39.2225 15.1344 39.8489 13.6781ZM70.1508 13.6781C70.7773 15.1344 71.3548 16.6685 71.885 18.2595C73.4475 22.9478 74.6988 28.4221 75.5722 34.4274C81.5782 35.301 87.0529 36.5521 91.7416 38.115C93.3323 38.6452 94.8657 39.2222 96.3215 39.8484C91.8792 27.7363 82.2635 18.1205 70.1508 13.6781ZM55 11.0005C54.2366 10.9981 53.2862 12.3012 52.8973 12.7948C51.4662 14.6108 49.9367 17.5794 48.5507 21.738C47.4425 25.0615 46.4898 28.9518 45.7463 33.2774C51.772 32.9118 58.228 32.9118 64.2537 33.2774C63.5102 28.9518 62.5575 25.0615 61.4493 21.738C60.0633 17.5794 58.5338 14.6108 57.1027 12.7948C56.7138 12.3012 55.7634 10.9981 55 11.0005Z" fill="white"/>
</svg>
