<svg width="110" height="114" viewBox="0 0 110 114" fill="none" xmlns="http://www.w3.org/2000/svg">
<path d="M65.5247 31.3956V4M65.5247 4L76.0494 14.2733M65.5247 4L55 14.2733" stroke="white" stroke-width="7" stroke-linecap="round" stroke-linejoin="round"/>
<path d="M59.565 36.6563H93.5C97.8761 36.6563 102.073 38.4024 105.167 41.5106C108.262 44.6188 110 48.8343 110 53.2299V97.4264C110 101.822 108.262 106.038 105.167 109.146C102.073 112.254 97.8761 114 93.5 114H16.5C12.1239 114 7.92709 112.254 4.83274 109.146C1.73839 106.038 0 101.822 0 97.4264L0 42.1808C0 37.7852 1.73839 33.5697 4.83274 30.4615C7.92709 27.3533 12.1239 25.6072 16.5 25.6072H44C51.183 25.6072 57.2935 30.2202 59.565 36.6563ZM77 58.7545V69.8036H88V58.7545H77ZM66 47.7054V58.7545H77V47.7054H66ZM66 69.8036V80.8527H77V69.8036H66ZM77 80.8527V91.9018H88V80.8527H77ZM66 91.9018V102.951H77V91.9018H66Z" fill="white"/>
</svg>
